<svg width="1024" height="1024" xmlns="http://www.w3.org/2000/svg">
 <defs>
  <linearGradient y2="Infinity" y1="Infinity" x2="Infinity" x1="Infinity" id="bg_1_">
   <stop stop-color="#000000" offset="0"/>
   <stop stop-color="#090909" offset="0.1921"/>
   <stop stop-color="#212121" offset="0.5054"/>
   <stop stop-color="#494948" offset="0.8987"/>
   <stop stop-color="#545453" offset="1"/>
  </linearGradient>
 </defs>
 <g>
  <title>background</title>
  <rect fill="none" id="canvas_background" height="402" width="582" y="-1" x="-1"/>
 </g>
 <g>
  <title>Layer 1</title>
  <circle r="512" id="bg" fill="url(#bg_1_)" cy="509.723758" cx="512.267"/>
  <path id="Blogger" fill="#FFFFFF" d="m739.564,441.714c-37.859,0 -46.272,-19.631 -46.272,-46.273c0,-26.642 -6.31,-67.305 -53.283,-117.083c-45.515,-48.233 -99.557,-49.778 -99.557,-49.778s-107.269,0 -153.541,0c-49.778,0 -87.025,27.563 -121.29,68.007c-42.768,50.479 -38.561,102.36 -38.561,102.36s0,159.851 0,198.762s4.207,89.391 53.634,144.076c49.428,54.686 127.25,53.634 127.25,53.634l204.021,0c60.294,0 93.893,-18.206 136.014,-56.438c45.571,-41.365 49.077,-117.084 49.077,-117.084s0,-125.497 0,-149.334c-0.002,-23.838 -19.633,-30.849 -57.492,-30.849zm-369.48,-39.087c0,-17.424 14.125,-31.549 31.55,-31.549l121.465,0c17.424,0 31.55,14.125 31.55,31.549l0,7.888c0,17.424 -14.125,31.549 -31.55,31.549l-121.465,0c-17.424,0 -31.55,-14.125 -31.55,-31.549l0,-7.888zm273.487,216.104c0,17.424 -14.125,31.549 -31.549,31.549l-210.33,0c-17.424,0 -31.55,-14.125 -31.55,-31.549l0,-7.888c0,-17.424 14.125,-31.549 31.55,-31.549l210.33,0c17.424,0 31.549,14.125 31.549,31.549l0,7.888z"/>
 </g>
</svg>